<svg aria-hidden="true" xmlns="http://www.w3.org/2000/svg" xmlns:xlink="http://www.w3.org/1999/xlink">

<symbol viewBox="0 0 51 12" id="big-arrow" xmlns="http://www.w3.org/2000/svg">
<path d="M50.5303 6.53033C50.8232 6.23744 50.8232 5.76257 50.5303 5.46967L45.7574 0.696703C45.4645 0.40381 44.9896 0.40381 44.6967 0.696703C44.4038 0.989596 44.4038 1.46447 44.6967 1.75736L48.9393 6L44.6967 10.2426C44.4038 10.5355 44.4038 11.0104 44.6967 11.3033C44.9896 11.5962 45.4645 11.5962 45.7574 11.3033L50.5303 6.53033ZM-6.55671e-08 6.75L50 6.75L50 5.25L6.55671e-08 5.25L-6.55671e-08 6.75Z"/>
</symbol>

<symbol viewBox="0 0 31 16" id="button-arrow" xmlns="http://www.w3.org/2000/svg">
<path d="M30.7071 8.70711C31.0976 8.31658 31.0976 7.68342 30.7071 7.29289L24.3431 0.928932C23.9526 0.538408 23.3195 0.538408 22.9289 0.928932C22.5384 1.31946 22.5384 1.95262 22.9289 2.34315L28.5858 8L22.9289 13.6569C22.5384 14.0474 22.5384 14.6805 22.9289 15.0711C23.3195 15.4616 23.9526 15.4616 24.3431 15.0711L30.7071 8.70711ZM0 9H30V7H0V9Z"/>
</symbol>

<symbol viewBox="0 0 24 24" id="calendar" xmlns="http://www.w3.org/2000/svg">
<path d="M8 2V5M16 2V5M3.5 9.09H20.5M21 8.5V17C21 20 19.5 22 16 22H8C4.5 22 3 20 3 17V8.5C3 5.5 4.5 3.5 8 3.5H16C19.5 3.5 21 5.5 21 8.5Z" stroke-width="1.5" stroke-miterlimit="10" stroke-linecap="round" stroke-linejoin="round"/>
<path d="M15.6959 13.7002H15.7049M15.6959 16.7002H15.7049M11.9959 13.7002H12.0059M11.9959 16.7002H12.0059M8.29492 13.7002H8.30492M8.29492 16.7002H8.30492" stroke-width="2" stroke-linecap="round" stroke-linejoin="round"/>
</symbol>

<symbol viewBox="0 0 24 24" id="eye" xmlns="http://www.w3.org/2000/svg">
<path d="M15.5799 11.9999C15.5799 13.9799 13.9799 15.5799 11.9999 15.5799C10.0199 15.5799 8.41992 13.9799 8.41992 11.9999C8.41992 10.0199 10.0199 8.41992 11.9999 8.41992C13.9799 8.41992 15.5799 10.0199 15.5799 11.9999Z" stroke-width="1.5" stroke-linecap="round" stroke-linejoin="round"/>
<path d="M11.9998 20.2697C15.5298 20.2697 18.8198 18.1897 21.1098 14.5897C22.0098 13.1797 22.0098 10.8097 21.1098 9.39973C18.8198 5.79973 15.5298 3.71973 11.9998 3.71973C8.46984 3.71973 5.17984 5.79973 2.88984 9.39973C1.98984 10.8097 1.98984 13.1797 2.88984 14.5897C5.17984 18.1897 8.46984 20.2697 11.9998 20.2697Z" stroke-width="1.5" stroke-linecap="round" stroke-linejoin="round"/>
</symbol>

<symbol viewBox="0 0 12 20" id="facebook" xmlns="http://www.w3.org/2000/svg">
<path d="M10.4937 11.2493L11.0636 7.63143H7.5529V5.27982C7.5529 4.29056 8.04303 3.32391 9.61031 3.32391H11.2289V0.243075C10.2863 0.0929007 9.33387 0.0116567 8.37928 0C5.48978 0 3.60335 1.73544 3.60335 4.87281V7.63143H0.400391V11.2493H3.60335V20H7.5529V11.2493H10.4937Z"/>
</symbol>

<symbol viewBox="0 0 24 24" id="globe" xmlns="http://www.w3.org/2000/svg">
<path d="M12 22C17.5228 22 22 17.5228 22 12C22 6.47715 17.5228 2 12 2C6.47715 2 2 6.47715 2 12C2 17.5228 6.47715 22 12 22Z" stroke-width="1.5" stroke-linecap="round" stroke-linejoin="round"/>
<path d="M2 12H22" stroke-width="1.5" stroke-linecap="round" stroke-linejoin="round"/>
<path d="M12 2C14.5013 4.73835 15.9228 8.29203 16 12C15.9228 15.708 14.5013 19.2616 12 22C9.49872 19.2616 8.07725 15.708 8 12C8.07725 8.29203 9.49872 4.73835 12 2Z" stroke-width="1.5" stroke-linecap="round" stroke-linejoin="round"/>
</symbol

><symbol viewBox="0 0 24 24" id="location" xmlns="http://www.w3.org/2000/svg">
<path d="M12.0009 13.4304C12.4106 13.4304 12.8163 13.3497 13.1948 13.1929C13.5734 13.0361 13.9173 12.8063 14.207 12.5166C14.4968 12.2269 14.7266 11.8829 14.8834 11.5044C15.0402 11.1259 15.1209 10.7202 15.1209 10.3104C15.1209 9.90071 15.0402 9.49499 14.8834 9.11646C14.7266 8.73792 14.4968 8.39397 14.207 8.10426C13.9173 7.81454 13.5734 7.58472 13.1948 7.42793C12.8163 7.27113 12.4106 7.19043 12.0009 7.19043C11.1734 7.19043 10.3798 7.51914 9.79469 8.10426C9.20957 8.68937 8.88086 9.48295 8.88086 10.3104C8.88086 11.1379 9.20957 11.9315 9.79469 12.5166C10.3798 13.1017 11.1734 13.4304 12.0009 13.4304Z" stroke-width="1.5"/>
<path d="M3.61971 8.49C5.58971 -0.169998 18.4197 -0.159997 20.3797 8.5C21.5297 13.58 18.3697 17.88 15.5997 20.54C14.6318 21.4735 13.3395 21.9952 11.9947 21.9952C10.65 21.9952 9.35763 21.4735 8.38971 20.54C5.62971 17.88 2.46971 13.57 3.61971 8.49Z" stroke-width="1.5"/>
</symbol>

<symbol viewBox="0 0 22 20" id="mail" xmlns="http://www.w3.org/2000/svg">
<path d="M16 18.5H6C3 18.5 1 17 1 13.5V6.5C1 3 3 1.5 6 1.5H16C19 1.5 21 3 21 6.5V13.5C21 17 19 18.5 16 18.5Z" stroke-width="1.5" stroke-miterlimit="10" stroke-linecap="round" stroke-linejoin="round"/>
</symbol>

<symbol viewBox="0 0 6 8" id="menu-list-arrow" xmlns="http://www.w3.org/2000/svg">
<path d="M4.33344 8L5.27344 7.06L2.2201 4L5.27344 0.94L4.33344 8.21774e-08L0.333437 4L4.33344 8Z"/>
</symbol>

<symbol viewBox="0 0 16 9" id="select-arr-up" xmlns="http://www.w3.org/2000/svg">
<path d="M8.72058 0.748846C8.32718 0.340013 7.67282 0.340013 7.27942 0.748846L0.969197 7.30662C0.357876 7.94193 0.808113 9 1.68977 9L14.3102 9C15.1919 9 15.6421 7.94193 15.0308 7.30662L8.72058 0.748846Z"/>
</symbol>

<symbol viewBox="0 0 12 8" id="select-arrow" xmlns="http://www.w3.org/2000/svg">
<path d="M1.5 1.75L6 6.25L10.5 1.75" stroke-width="2" stroke-linecap="round" stroke-linejoin="round"/>
</symbol>

<symbol viewBox="0 0 20 16" id="twitter" xmlns="http://www.w3.org/2000/svg">
<path d="M19.4124 2.25163C18.8076 2.51188 18.1719 2.69311 17.5208 2.79083C17.8252 2.73865 18.2731 2.19075 18.4514 1.96898C18.7222 1.63447 18.9286 1.25259 19.0601 0.842752C19.0601 0.812313 19.0906 0.76883 19.0601 0.747088C19.0448 0.738715 19.0276 0.734327 19.0101 0.734327C18.9927 0.734327 18.9755 0.738715 18.9601 0.747088C18.2532 1.12993 17.5008 1.42212 16.7207 1.61676C16.6935 1.62507 16.6646 1.62581 16.637 1.61892C16.6094 1.61202 16.5842 1.59775 16.5642 1.57763C16.5034 1.50533 16.4381 1.43706 16.3685 1.37325C16.0503 1.0882 15.6894 0.854888 15.2988 0.681862C14.7716 0.465564 14.2021 0.37189 13.6334 0.407914C13.0815 0.442766 12.5427 0.59078 12.0505 0.842752C11.5659 1.1084 11.1399 1.4693 10.7982 1.90376C10.4388 2.35092 10.1793 2.86987 10.0372 3.42569C9.92008 3.95439 9.90679 4.50082 9.99811 5.03459C9.99811 5.12591 9.99811 5.13895 9.91984 5.12591C6.81945 4.66933 4.27565 3.56919 2.19712 1.20802C2.10581 1.10365 2.05797 1.10365 1.98405 1.20802C1.07959 2.5821 1.51877 4.75629 2.64935 5.83034C2.80155 5.97384 2.95809 6.11299 3.12333 6.24344C2.60496 6.20664 2.09926 6.06616 1.63618 5.83034C1.54921 5.77381 1.50138 5.80425 1.49703 5.90861C1.48471 6.0533 1.48471 6.19877 1.49703 6.34345C1.58776 7.03684 1.86103 7.6937 2.28887 8.24684C2.71672 8.79998 3.2838 9.22957 3.93212 9.49168C4.09017 9.55937 4.25485 9.61038 4.42349 9.64387C3.94361 9.73835 3.45144 9.75304 2.96678 9.68736C2.86242 9.66561 2.82329 9.72214 2.86242 9.82215C3.50163 11.5615 4.88877 12.092 5.90629 12.3877C6.04544 12.4094 6.18458 12.4094 6.34113 12.4442C6.34113 12.4442 6.34113 12.4442 6.31504 12.4703C6.015 13.0182 4.8018 13.3878 4.24521 13.5792C3.22928 13.9441 2.14612 14.0835 1.07089 13.9879C0.901304 13.9618 0.862169 13.9662 0.818685 13.9879C0.775201 14.0096 0.818685 14.0575 0.866517 14.101C1.08394 14.2445 1.30136 14.3706 1.52747 14.4923C2.20062 14.8595 2.91227 15.1511 3.64948 15.362C7.46736 16.4143 11.7636 15.6403 14.6291 12.7921C16.8816 10.557 17.673 7.47403 17.673 4.38668C17.673 4.26927 17.8165 4.1997 17.8991 4.13882C18.469 3.69481 18.9714 3.17044 19.3906 2.5821C19.4632 2.4944 19.5004 2.38274 19.495 2.26902C19.495 2.20379 19.495 2.21684 19.4124 2.25163Z"/>
</symbol>

<symbol viewBox="0 0 24 16" id="youtube" xmlns="http://www.w3.org/2000/svg">
<path fill-rule="evenodd" clip-rule="evenodd" d="M20.7086 0.476364C21.6915 0.741818 22.4641 1.51636 22.7252 2.49818C23.2004 4.28 23.2004 8 23.2004 8C23.2004 8 23.2004 11.72 22.7252 13.5018C22.4605 14.4873 21.6879 15.2618 20.7086 15.5236C18.9313 16 11.8004 16 11.8004 16C11.8004 16 4.67312 16 2.89221 15.5236C1.90927 15.2582 1.13669 14.4836 0.875542 13.5018C0.400391 11.72 0.400391 8 0.400391 8C0.400391 8 0.400391 4.28 0.875542 2.49818C1.14032 1.51273 1.91289 0.738182 2.89221 0.476364C4.67312 0 11.8004 0 11.8004 0C11.8004 0 18.9313 0 20.7086 0.476364ZM15.4456 8L9.52257 11.4291V4.57091L15.4456 8Z"/>
</symbol></svg>