<svg width="40" height="40" viewBox="0 0 40 40" fill="none" xmlns="http://www.w3.org/2000/svg">
<rect x="1.2002" y="36.4004" width="37.6" height="3.2" fill="url(#paint0_linear_338_5508)"/>
<path d="M3.59961 26.0002C3.59961 25.5584 3.95778 25.2002 4.39961 25.2002H9.19961C9.64144 25.2002 9.99961 25.5584 9.99961 26.0002V36.4002H3.59961V26.0002Z" fill="url(#paint1_linear_338_5508)"/>
<path d="M12.4004 22.0002C12.4004 21.5584 12.7586 21.2002 13.2004 21.2002H18.0004C18.4422 21.2002 18.8004 21.5584 18.8004 22.0002V36.4002H12.4004V22.0002Z" fill="url(#paint2_linear_338_5508)"/>
<path d="M21.2002 12.3996C21.2002 11.9578 21.5584 11.5996 22.0002 11.5996H26.8002C27.242 11.5996 27.6002 11.9578 27.6002 12.3996V36.3996H21.2002V12.3996Z" fill="url(#paint3_linear_338_5508)"/>
<path d="M30 17.2004C30 16.7586 30.3582 16.4004 30.8 16.4004H35.6C36.0418 16.4004 36.4 16.7586 36.4 17.2004V36.4004H30V17.2004Z" fill="url(#paint4_linear_338_5508)"/>
<path d="M10.6022 15.1305C10.2182 15.1305 9.82825 15.1065 9.43225 15.0585C9.04825 15.0225 8.66425 14.9685 8.28025 14.8965C7.89625 14.8245 7.52425 14.7405 7.16425 14.6445C6.80425 14.5485 6.46825 14.4405 6.15625 14.3205L6.71425 12.0345C7.06225 12.1545 7.42225 12.2625 7.79425 12.3585C8.16625 12.4545 8.53825 12.5385 8.91025 12.6105C9.28225 12.6705 9.64225 12.7185 9.99025 12.7545C10.3503 12.7785 10.6922 12.7905 11.0162 12.7905C11.7242 12.7905 12.2403 12.6945 12.5643 12.5025C12.9003 12.3105 13.0683 12.0225 13.0683 11.6385C13.0683 11.4105 12.9963 11.2125 12.8523 11.0445C12.7203 10.8645 12.5102 10.7025 12.2222 10.5585C11.9342 10.4145 11.5742 10.2705 11.1422 10.1265C10.7102 9.98252 10.2063 9.82052 9.63025 9.64052C8.99425 9.41252 8.44225 9.13052 7.97425 8.79452C7.50625 8.45852 7.14625 8.05052 6.89425 7.57052C6.64225 7.07852 6.51625 6.50252 6.51625 5.84252C6.51625 5.02652 6.71425 4.34852 7.11025 3.80852C7.51825 3.25652 8.08825 2.84852 8.82025 2.58452C9.56425 2.30852 10.4462 2.17052 11.4662 2.17052C11.9702 2.17052 12.4683 2.20052 12.9603 2.26052C13.4523 2.30852 13.9203 2.38052 14.3643 2.47652C14.8203 2.57252 15.2222 2.68052 15.5702 2.80052L15.0483 5.10452C14.7242 4.98452 14.3642 4.88852 13.9682 4.81652C13.5722 4.74452 13.1642 4.69052 12.7443 4.65452C12.3362 4.60652 11.9402 4.58252 11.5562 4.58252C10.8723 4.58252 10.3682 4.67252 10.0442 4.85252C9.73225 5.03252 9.57625 5.31452 9.57625 5.69852C9.57625 5.92652 9.63025 6.13052 9.73825 6.31052C9.85825 6.47852 10.0322 6.63452 10.2602 6.77852C10.5002 6.91052 10.8002 7.04252 11.1602 7.17452C11.5322 7.29452 11.9702 7.42652 12.4742 7.57052C13.2422 7.78652 13.9022 8.05652 14.4542 8.38052C15.0062 8.70452 15.4262 9.11252 15.7142 9.60452C16.0022 10.0965 16.1462 10.7025 16.1462 11.4225C16.1462 12.1065 16.0082 12.6885 15.7322 13.1685C15.4562 13.6485 15.0662 14.0385 14.5623 14.3385C14.0703 14.6265 13.4823 14.8305 12.7983 14.9505C12.1263 15.0825 11.3942 15.1425 10.6022 15.1305ZM10.1342 16.8405V14.8425L12.4563 14.7165V16.8405H10.1342ZM10.1342 2.58452V0.478516H12.4563V2.44052L10.1342 2.58452Z" fill="url(#paint5_linear_338_5508)"/>
<defs>
<linearGradient id="paint0_linear_338_5508" x1="20.0002" y1="36.4004" x2="20.0002" y2="39.6004" gradientUnits="userSpaceOnUse">
<stop stop-color="#FFDDAA"/>
<stop offset="1" stop-color="#F4BE6C"/>
</linearGradient>
<linearGradient id="paint1_linear_338_5508" x1="6.79961" y1="25.2002" x2="6.79961" y2="36.4002" gradientUnits="userSpaceOnUse">
<stop stop-color="#7BA2FF"/>
<stop offset="1" stop-color="#C9DFFF"/>
</linearGradient>
<linearGradient id="paint2_linear_338_5508" x1="15.6004" y1="21.2002" x2="15.6004" y2="36.4002" gradientUnits="userSpaceOnUse">
<stop stop-color="#7BA2FF"/>
<stop offset="1" stop-color="#C9DFFF"/>
</linearGradient>
<linearGradient id="paint3_linear_338_5508" x1="24.4002" y1="11.5996" x2="24.4002" y2="36.3996" gradientUnits="userSpaceOnUse">
<stop stop-color="#7BA2FF"/>
<stop offset="1" stop-color="#C9DFFF"/>
</linearGradient>
<linearGradient id="paint4_linear_338_5508" x1="33.2" y1="16.4004" x2="33.2" y2="36.4004" gradientUnits="userSpaceOnUse">
<stop stop-color="#7BA2FF"/>
<stop offset="1" stop-color="#C9DFFF"/>
</linearGradient>
<linearGradient id="paint5_linear_338_5508" x1="11.1512" y1="0.478516" x2="11.1512" y2="16.8405" gradientUnits="userSpaceOnUse">
<stop stop-color="#FFDDAA"/>
<stop offset="1" stop-color="#F4BE6C"/>
</linearGradient>
</defs>
</svg>
