<svg width="40" height="40" viewBox="0 0 40 40" fill="none" xmlns="http://www.w3.org/2000/svg">
<rect x="2.7998" y="5.2002" width="34.4" height="29.6" rx="1.6" fill="url(#paint0_linear_338_5567)"/>
<path d="M2.7998 6.8002C2.7998 5.91654 3.51615 5.2002 4.3998 5.2002H35.5998C36.4835 5.2002 37.1998 5.91654 37.1998 6.8002V11.6002H2.7998V6.8002Z" fill="url(#paint1_linear_338_5567)"/>
<rect x="6" y="7.59961" width="1.6" height="1.6" fill="url(#paint2_linear_338_5567)"/>
<rect x="9.2002" y="7.59961" width="1.6" height="1.6" fill="url(#paint3_linear_338_5567)"/>
<rect x="12.4004" y="7.59961" width="1.6" height="1.6" fill="url(#paint4_linear_338_5567)"/>
<path d="M11.341 20.3L9 17.8755L10.0098 16.8691L11.341 18.2415L13.5443 16L14.6 17.0521L11.341 20.3Z" fill="url(#paint5_linear_338_5567)"/>
<path fill-rule="evenodd" clip-rule="evenodd" d="M12.2 25.6996H10.6V27.2996H12.2V25.6996ZM9 24.0996V28.8996H13.8V24.0996H9Z" fill="url(#paint6_linear_338_5567)"/>
<rect x="18" y="16" width="12.8" height="1.7" fill="url(#paint7_linear_338_5567)"/>
<rect x="18" y="19.2002" width="7.1" height="1.7" fill="url(#paint8_linear_338_5567)"/>
<rect x="18" y="24.0996" width="14.8" height="1.7" fill="url(#paint9_linear_338_5567)"/>
<rect x="18" y="16" width="7.1" height="1.7" fill="url(#paint10_linear_338_5567)"/>
<defs>
<linearGradient id="paint0_linear_338_5567" x1="37.1998" y1="17.886" x2="2.7998" y2="17.886" gradientUnits="userSpaceOnUse">
<stop stop-color="#F4F8FE"/>
<stop offset="0.859375" stop-color="#E5ECF6"/>
</linearGradient>
<linearGradient id="paint1_linear_338_5567" x1="19.9998" y1="5.2002" x2="19.9998" y2="11.6002" gradientUnits="userSpaceOnUse">
<stop stop-color="#7BA2FF"/>
<stop offset="1" stop-color="#C9DFFF"/>
</linearGradient>
<linearGradient id="paint2_linear_338_5567" x1="6.8" y1="7.59961" x2="6.8" y2="9.19961" gradientUnits="userSpaceOnUse">
<stop stop-color="#FFDDAA"/>
<stop offset="1" stop-color="#F4BE6C"/>
</linearGradient>
<linearGradient id="paint3_linear_338_5567" x1="10.0002" y1="7.59961" x2="10.0002" y2="9.19961" gradientUnits="userSpaceOnUse">
<stop stop-color="#FFDDAA"/>
<stop offset="1" stop-color="#F4BE6C"/>
</linearGradient>
<linearGradient id="paint4_linear_338_5567" x1="13.2004" y1="7.59961" x2="13.2004" y2="9.19961" gradientUnits="userSpaceOnUse">
<stop stop-color="#FFDDAA"/>
<stop offset="1" stop-color="#F4BE6C"/>
</linearGradient>
<linearGradient id="paint5_linear_338_5567" x1="11.8" y1="16" x2="11.8" y2="20.3" gradientUnits="userSpaceOnUse">
<stop stop-color="#7BA2FF"/>
<stop offset="1" stop-color="#C9DFFF"/>
</linearGradient>
<linearGradient id="paint6_linear_338_5567" x1="11.4" y1="24.0996" x2="11.4" y2="28.8996" gradientUnits="userSpaceOnUse">
<stop stop-color="#7BA2FF"/>
<stop offset="1" stop-color="#C9DFFF"/>
</linearGradient>
<linearGradient id="paint7_linear_338_5567" x1="24.4" y1="16" x2="24.4" y2="17.7" gradientUnits="userSpaceOnUse">
<stop stop-color="#7BA2FF"/>
<stop offset="1" stop-color="#C9DFFF"/>
</linearGradient>
<linearGradient id="paint8_linear_338_5567" x1="21.55" y1="19.2002" x2="21.55" y2="20.9002" gradientUnits="userSpaceOnUse">
<stop stop-color="#7BA2FF"/>
<stop offset="1" stop-color="#C9DFFF"/>
</linearGradient>
<linearGradient id="paint9_linear_338_5567" x1="25.4" y1="24.0996" x2="25.4" y2="25.7996" gradientUnits="userSpaceOnUse">
<stop stop-color="#7BA2FF"/>
<stop offset="1" stop-color="#C9DFFF"/>
</linearGradient>
<linearGradient id="paint10_linear_338_5567" x1="21.55" y1="16" x2="21.55" y2="17.7" gradientUnits="userSpaceOnUse">
<stop stop-color="#7BA2FF"/>
<stop offset="1" stop-color="#C9DFFF"/>
</linearGradient>
</defs>
</svg>
