<svg width="40" height="40" viewBox="0 0 40 40" fill="none" xmlns="http://www.w3.org/2000/svg">
<g clip-path="url(#clip0_338_5546)">
<rect x="0.700195" y="3" width="35.2" height="32" rx="1.6" fill="url(#paint0_linear_338_5546)"/>
<path d="M0.700195 4.6C0.700195 3.71634 1.41654 3 2.3002 3H34.3002C35.1838 3 35.9002 3.71634 35.9002 4.6V11H0.700195V4.6Z" fill="url(#paint1_linear_338_5546)"/>
<path d="M8.7002 1.49981C8.7002 0.837064 9.23745 0.299805 9.9002 0.299805C10.5629 0.299805 11.1002 0.837063 11.1002 1.49981V6.6998H8.7002V1.49981Z" fill="url(#paint2_linear_338_5546)"/>
<path d="M25.5 1.49981C25.5 0.837064 26.0373 0.299805 26.7 0.299805C27.3627 0.299805 27.9 0.837063 27.9 1.49981V6.6998H25.5V1.49981Z" fill="url(#paint3_linear_338_5546)"/>
<rect x="6.2998" y="15.4004" width="6.4" height="6.4" fill="white"/>
<rect x="6.2998" y="24.2002" width="6.4" height="6.4" fill="white"/>
<rect x="15.0996" y="15.4004" width="6.4" height="6.4" fill="white"/>
<rect x="15.0996" y="24.2002" width="6.4" height="6.4" fill="white"/>
<rect x="23.9004" y="15.4004" width="6.4" height="6.4" fill="white"/>
<rect x="23.9004" y="24.2002" width="6.4" height="6.4" fill="white"/>
<path d="M19.1496 21.2996L16.5996 18.6496L17.6996 17.5496L19.1496 19.0496L21.5496 16.5996L22.6996 17.7496L19.1496 21.2996Z" fill="url(#paint4_linear_338_5546)"/>
<circle cx="30.2502" cy="30.6496" r="9.05" fill="url(#paint5_linear_338_5546)"/>
<rect x="36.9961" y="30.2021" width="1.6" height="7.5" rx="0.8" transform="rotate(90 36.9961 30.2021)" fill="#E5ECF3"/>
<rect x="27.0996" y="26.6055" width="2.36706" height="6.46547" rx="1.18353" transform="rotate(-22.4769 27.0996 26.6055)" fill="white"/>
</g>
<defs>
<linearGradient id="paint0_linear_338_5546" x1="1.44913" y1="4.72043" x2="26.5697" y2="41.172" gradientUnits="userSpaceOnUse">
<stop stop-color="#E8F0FA"/>
<stop offset="1" stop-color="#D3DFED"/>
</linearGradient>
<linearGradient id="paint1_linear_338_5546" x1="18.3002" y1="3" x2="18.3002" y2="11" gradientUnits="userSpaceOnUse">
<stop stop-color="#7BA2FF"/>
<stop offset="1" stop-color="#C9DFFF"/>
</linearGradient>
<linearGradient id="paint2_linear_338_5546" x1="9.9002" y1="0.299805" x2="9.9002" y2="6.6998" gradientUnits="userSpaceOnUse">
<stop stop-color="#FFDDAA"/>
<stop offset="1" stop-color="#F4BE6C"/>
</linearGradient>
<linearGradient id="paint3_linear_338_5546" x1="26.7" y1="0.299805" x2="26.7" y2="6.6998" gradientUnits="userSpaceOnUse">
<stop stop-color="#FFDDAA"/>
<stop offset="1" stop-color="#F4BE6C"/>
</linearGradient>
<linearGradient id="paint4_linear_338_5546" x1="19.6496" y1="16.5996" x2="19.6496" y2="21.2996" gradientUnits="userSpaceOnUse">
<stop stop-color="#7BA2FF"/>
<stop offset="1" stop-color="#C9DFFF"/>
</linearGradient>
<linearGradient id="paint5_linear_338_5546" x1="30.2502" y1="21.5996" x2="30.2502" y2="39.6996" gradientUnits="userSpaceOnUse">
<stop stop-color="#FFDDAA"/>
<stop offset="1" stop-color="#F4BE6C"/>
</linearGradient>
<clipPath id="clip0_338_5546">
<rect width="40" height="40" fill="white"/>
</clipPath>
</defs>
</svg>
