<svg width="40" height="40" viewBox="0 0 40 40" fill="none" xmlns="http://www.w3.org/2000/svg">
<path d="M4.79883 35.501V30.001H35.1988V35.501C35.1988 35.501 33.9988 39.851 19.9988 39.851C5.99883 39.851 4.79883 35.501 4.79883 35.501Z" fill="url(#paint0_linear_338_5521)"/>
<ellipse cx="19.9988" cy="30.001" rx="15.2" ry="4.5" fill="url(#paint1_linear_338_5521)"/>
<path d="M4.79883 26.501V21.001H35.1988V26.501C35.1988 26.501 33.9988 30.851 19.9988 30.851C5.99883 30.851 4.79883 26.501 4.79883 26.501Z" fill="url(#paint2_linear_338_5521)"/>
<ellipse cx="19.9988" cy="21.001" rx="15.2" ry="4.5" fill="url(#paint3_linear_338_5521)"/>
<path d="M20.7988 6.80156C20.7988 6.13882 21.3361 5.60156 21.9988 5.60156H36.3988C37.0616 5.60156 37.5988 6.13882 37.5988 6.80156V18.0016C37.5988 18.6643 37.0616 19.2016 36.3988 19.2016H21.9988C21.3361 19.2016 20.7988 18.6643 20.7988 18.0016V6.80156Z" fill="url(#paint4_linear_338_5521)"/>
<path d="M20.7988 22.4516V17.2516L24.2488 18.9516L20.7988 22.4516Z" fill="url(#paint5_linear_338_5521)"/>
<rect x="23.999" y="11.2012" width="2.4" height="4.8" fill="white"/>
<rect x="27.999" y="8.00195" width="2.4" height="8" fill="white"/>
<rect x="31.999" y="9.60156" width="2.4" height="6.4" fill="white"/>
<path d="M19.2002 1.30156C19.2002 0.638821 18.6629 0.101562 18.0002 0.101562H3.6002C2.93745 0.101562 2.4002 0.638821 2.4002 1.30156V12.5016C2.4002 13.1643 2.93745 13.7016 3.6002 13.7016H18.0002C18.6629 13.7016 19.2002 13.1643 19.2002 12.5016V1.30156Z" fill="url(#paint6_linear_338_5521)"/>
<path d="M19.2002 16.9516V11.7516L15.7502 13.4516L19.2002 16.9516Z" fill="url(#paint7_linear_338_5521)"/>
<path d="M11.2498 3.60098C11.9322 3.60098 12.5992 3.80332 13.1665 4.18241C13.7339 4.5615 14.1761 5.10031 14.4372 5.73072C14.6983 6.36112 14.7666 7.0548 14.6335 7.72404C14.5004 8.39327 14.1718 9.008 13.6893 9.49049C13.2068 9.97299 12.5921 10.3016 11.9229 10.4347C11.2536 10.5678 10.56 10.4995 9.92955 10.2384C9.29914 9.97724 8.76033 9.53504 8.38123 8.96769C8.00214 8.40034 7.7998 7.73332 7.7998 7.05098L11.2498 7.05098L11.2498 3.60098Z" fill="white"/>
<path d="M7.00039 6.25117C7.00039 5.79811 7.08963 5.34949 7.26301 4.93091C7.43638 4.51234 7.69051 4.13202 8.01087 3.81165C8.33123 3.49129 8.71156 3.23717 9.13013 3.06379C9.54871 2.89041 9.99733 2.80117 10.4504 2.80117L10.4504 6.25117L7.00039 6.25117Z" fill="white"/>
<defs>
<linearGradient id="paint0_linear_338_5521" x1="5.44564" y1="30.5305" x2="9.27918" y2="46.138" gradientUnits="userSpaceOnUse">
<stop stop-color="#E8F0FA"/>
<stop offset="1" stop-color="#D3DFED"/>
</linearGradient>
<linearGradient id="paint1_linear_338_5521" x1="19.9988" y1="25.501" x2="19.9988" y2="34.501" gradientUnits="userSpaceOnUse">
<stop stop-color="#FFDDAA"/>
<stop offset="1" stop-color="#F4BE6C"/>
</linearGradient>
<linearGradient id="paint2_linear_338_5521" x1="5.44564" y1="21.5305" x2="9.27918" y2="37.138" gradientUnits="userSpaceOnUse">
<stop stop-color="#E8F0FA"/>
<stop offset="1" stop-color="#D3DFED"/>
</linearGradient>
<linearGradient id="paint3_linear_338_5521" x1="19.9988" y1="16.501" x2="19.9988" y2="25.501" gradientUnits="userSpaceOnUse">
<stop stop-color="#FFDDAA"/>
<stop offset="1" stop-color="#F4BE6C"/>
</linearGradient>
<linearGradient id="paint4_linear_338_5521" x1="29.1988" y1="5.60156" x2="29.1988" y2="22.4516" gradientUnits="userSpaceOnUse">
<stop stop-color="#7BA2FF"/>
<stop offset="1" stop-color="#C9DFFF"/>
</linearGradient>
<linearGradient id="paint5_linear_338_5521" x1="29.1988" y1="5.60156" x2="29.1988" y2="22.4516" gradientUnits="userSpaceOnUse">
<stop stop-color="#7BA2FF"/>
<stop offset="1" stop-color="#C9DFFF"/>
</linearGradient>
<linearGradient id="paint6_linear_338_5521" x1="10.8002" y1="0.101562" x2="10.8002" y2="16.9516" gradientUnits="userSpaceOnUse">
<stop stop-color="#FFDDAA"/>
<stop offset="1" stop-color="#F4BE6C"/>
</linearGradient>
<linearGradient id="paint7_linear_338_5521" x1="10.8002" y1="0.101562" x2="10.8002" y2="16.9516" gradientUnits="userSpaceOnUse">
<stop stop-color="#FFDDAA"/>
<stop offset="1" stop-color="#F4BE6C"/>
</linearGradient>
</defs>
</svg>
