<svg width="40" height="40" viewBox="0 0 40 40" fill="none" xmlns="http://www.w3.org/2000/svg">
<g clip-path="url(#clip0_338_5492)">
<path fill-rule="evenodd" clip-rule="evenodd" d="M39.489 39.1996C39.489 32.2408 40.9862 26.5997 33.0004 26.5996C25.0146 26.5995 26.5117 32.2408 26.5117 39.1996H39.489Z" fill="url(#paint0_linear_338_5492)"/>
<path fill-rule="evenodd" clip-rule="evenodd" d="M28.4731 39.1996C28.4731 32.2408 30.1744 26.5997 21.0996 26.5996C12.0248 26.5995 13.7261 32.2408 13.7261 39.1996H28.4731Z" fill="url(#paint1_linear_338_5492)"/>
<path fill-rule="evenodd" clip-rule="evenodd" d="M17.545 39.2C17.545 30.8053 19.4947 24.0001 9.095 24C-1.30473 23.9999 0.644998 30.8053 0.644998 39.2H17.545Z" fill="url(#paint2_linear_338_5492)"/>
<circle cx="9.10019" cy="17.1998" r="4.4" fill="url(#paint3_linear_338_5492)"/>
<circle cx="21.1496" cy="19.9504" r="4.05" fill="url(#paint4_linear_338_5492)"/>
<circle cx="33.0498" cy="21.25" r="3.75" fill="url(#paint5_linear_338_5492)"/>
<path d="M19.3994 2.3002C19.3994 1.41654 20.1158 0.700195 20.9994 0.700195H32.9994C33.8831 0.700195 34.5994 1.41654 34.5994 2.3002V11.9002C34.5994 12.7839 33.8831 13.5002 32.9994 13.5002H20.9994C20.1158 13.5002 19.3994 12.7839 19.3994 11.9002V2.3002Z" fill="url(#paint6_linear_338_5492)"/>
<path d="M26.9994 15.9002L24.8344 13.3502H29.1645L26.9994 15.9002Z" fill="url(#paint7_linear_338_5492)"/>
<path d="M26.5187 10.3004L23.2998 6.97379L24.6883 5.59294L26.5187 7.47592L29.5482 4.40039L30.9998 5.84401L26.5187 10.3004Z" fill="white"/>
</g>
<defs>
<linearGradient id="paint0_linear_338_5492" x1="26.6812" y1="27.277" x2="36.7352" y2="41.1713" gradientUnits="userSpaceOnUse">
<stop stop-color="#E8F0FA"/>
<stop offset="1" stop-color="#D3DFED"/>
</linearGradient>
<linearGradient id="paint1_linear_338_5492" x1="13.9188" y1="27.277" x2="23.5098" y2="42.339" gradientUnits="userSpaceOnUse">
<stop stop-color="#E8F0FA"/>
<stop offset="1" stop-color="#D3DFED"/>
</linearGradient>
<linearGradient id="paint2_linear_338_5492" x1="9.095" y1="24" x2="9.095" y2="39.2" gradientUnits="userSpaceOnUse">
<stop stop-color="#7BA2FF"/>
<stop offset="1" stop-color="#C9DFFF"/>
</linearGradient>
<linearGradient id="paint3_linear_338_5492" x1="9.10019" y1="12.7998" x2="9.10019" y2="21.5998" gradientUnits="userSpaceOnUse">
<stop stop-color="#7BA2FF"/>
<stop offset="1" stop-color="#C9DFFF"/>
</linearGradient>
<linearGradient id="paint4_linear_338_5492" x1="17.2719" y1="16.3359" x2="23.8235" y2="24.9783" gradientUnits="userSpaceOnUse">
<stop stop-color="#E8F0FA"/>
<stop offset="1" stop-color="#D3DFED"/>
</linearGradient>
<linearGradient id="paint5_linear_338_5492" x1="29.4594" y1="17.9032" x2="35.5256" y2="25.9055" gradientUnits="userSpaceOnUse">
<stop stop-color="#E8F0FA"/>
<stop offset="1" stop-color="#D3DFED"/>
</linearGradient>
<linearGradient id="paint6_linear_338_5492" x1="26.9994" y1="0.700195" x2="26.9994" y2="15.9002" gradientUnits="userSpaceOnUse">
<stop stop-color="#FFDDAA"/>
<stop offset="1" stop-color="#F4BE6C"/>
</linearGradient>
<linearGradient id="paint7_linear_338_5492" x1="26.9994" y1="0.700195" x2="26.9994" y2="15.9002" gradientUnits="userSpaceOnUse">
<stop stop-color="#FFDDAA"/>
<stop offset="1" stop-color="#F4BE6C"/>
</linearGradient>
<clipPath id="clip0_338_5492">
<rect width="40" height="40" fill="white"/>
</clipPath>
</defs>
</svg>
